<?xml version="1.0" encoding="utf-8"?>
<!-- Generator: Adobe Illustrator 17.0.0, SVG Export Plug-In . SVG Version: 6.00 Build 0)  -->
<!DOCTYPE svg PUBLIC "-//W3C//DTD SVG 1.1//EN" "http://www.w3.org/Graphics/SVG/1.1/DTD/svg11.dtd">
<svg version="1.1" id="Layer_1" xmlns="http://www.w3.org/2000/svg" xmlns:xlink="http://www.w3.org/1999/xlink" x="0px" y="0px"
	 width="35px" height="35px" viewBox="-5.5 -5.5 35 35" enable-background="new -5.5 -5.5 35 35" xml:space="preserve">
<path fill="#3A52EE" d="M12-5.5C2.335-5.5-5.5,2.335-5.5,12S2.335,29.5,12,29.5S29.5,21.665,29.5,12S21.665-5.5,12-5.5z M12,4.5
	c2.069,0,3.747,1.679,3.747,3.75S14.069,12,12,12c-2.069,0-3.747-1.679-3.747-3.75S9.931,4.5,12,4.5z M20.009,20.199
	C18.172,22.047,15.239,23.25,12,23.25s-6.172-1.203-8.01-3.051c-1.947-1.957,0.255-4.449,3.014-4.449h9.991
	C19.755,15.75,21.956,18.242,20.009,20.199z"/>
</svg>
